<?xml version="1.0" standalone="no"?>
<!DOCTYPE svg PUBLIC "-//W3C//DTD SVG 20010904//EN"
 "http://www.w3.org/TR/2001/REC-SVG-20010904/DTD/svg10.dtd">
<svg version="1.0" xmlns="http://www.w3.org/2000/svg"
 width="720.000000pt" height="720.000000pt" viewBox="0 0 720.000000 720.000000"
 preserveAspectRatio="xMidYMid meet">
<metadata>
Created by potrace 1.11, written by Peter Selinger 2001-2013
</metadata>
<g transform="translate(0.000000,720.000000) scale(0.100000,-0.100000)"
fill="#000000" stroke="none">
<path d="M3448 7195 c-2 -1 -37 -6 -77 -9 -41 -4 -77 -9 -80 -10 -4 -2 -30 -7
-60 -10 -29 -4 -57 -8 -61 -11 -3 -2 -17 -6 -31 -9 -260 -54 -537 -182 -771
-358 -75 -57 -257 -232 -306 -294 -228 -293 -365 -598 -428 -954 -4 -25 -8
-47 -9 -50 -8 -33 -25 -209 -29 -301 -5 -91 -13 -136 -33 -166 -9 -13 -13 -23
-9 -23 3 0 1 -12 -5 -27 -6 -15 -14 -70 -19 -123 -9 -96 -13 -124 -30 -215 -5
-27 -11 -66 -14 -86 -8 -55 -56 -296 -76 -384 -10 -45 -21 -92 -24 -105 -2
-14 -14 -63 -26 -110 -12 -47 -23 -89 -24 -95 -1 -5 -5 -16 -9 -22 -5 -7 -6
-13 -2 -13 3 0 -1 -16 -9 -35 -9 -20 -15 -36 -15 -38 7 -26 -131 -420 -200
-570 -17 -37 -31 -69 -31 -71 0 -15 -121 -214 -166 -273 -65 -87 -78 -132 -54
-189 23 -53 56 -73 168 -100 52 -12 96 -25 98 -27 3 -2 -18 -38 -46 -79 -65
-95 -71 -153 -21 -207 l29 -31 -44 -83 c-25 -45 -54 -101 -64 -125 -17 -38
-22 -42 -45 -36 -44 11 -92 -5 -129 -42 -20 -20 -37 -46 -37 -57 -1 -12 -3
-32 -4 -45 -2 -22 31 -102 44 -102 3 0 14 -6 23 -14 16 -12 16 -17 2 -67 -21
-75 -41 -149 -48 -180 -5 -21 -12 -26 -41 -27 -19 -1 -48 -8 -63 -16 -50 -26
-61 -51 -88 -201 -18 -103 -27 -320 -15 -358 35 -105 423 -350 750 -474 115
-44 226 -84 241 -88 8 -2 71 -20 140 -41 69 -20 134 -38 145 -40 11 -2 56 -12
100 -24 44 -11 91 -23 105 -26 14 -3 45 -10 70 -15 25 -6 58 -12 73 -14 26 -4
104 -18 152 -29 11 -2 43 -7 70 -10 28 -4 61 -8 75 -11 44 -8 84 -14 145 -20
33 -4 74 -9 90 -11 17 -2 62 -6 100 -9 39 -3 84 -7 100 -10 166 -27 1168 -27
1380 0 17 2 62 7 100 10 39 3 81 8 95 10 14 2 45 7 70 9 55 6 247 34 277 40
11 3 43 8 70 12 26 5 50 8 53 9 3 1 19 4 35 8 17 4 41 9 55 11 70 13 227 51
415 101 94 25 330 107 455 158 239 98 466 227 608 346 100 84 105 94 97 236
-3 66 -8 131 -10 145 -2 14 -6 48 -10 75 -12 90 -53 278 -80 365 -14 47 -28
94 -30 106 -19 87 -150 391 -223 518 -19 34 -41 72 -48 86 -7 14 -45 72 -83
130 l-71 105 58 12 c197 42 213 47 241 72 15 14 33 36 40 48 14 28 14 88 -1
116 -14 28 -71 101 -80 105 -5 2 -8 8 -8 12 0 5 -13 28 -29 52 -116 176 -263
543 -356 893 -1 6 -3 12 -4 15 -5 17 -49 176 -50 183 0 4 -1 8 -2 10 0 1 -2 9
-4 17 -1 8 -13 60 -25 115 -12 55 -26 122 -31 148 -4 26 -10 56 -13 65 -3 9
-17 82 -30 162 -14 80 -27 154 -30 165 -2 11 -7 52 -10 90 -13 137 -18 161
-43 235 -14 43 -27 105 -28 144 -8 156 -27 314 -51 416 -3 14 -8 36 -11 50
-17 88 -63 230 -110 345 -113 275 -305 541 -522 725 -30 25 -59 50 -65 55 -31
29 -161 117 -236 161 -260 152 -524 237 -855 274 -63 7 -370 11 -377 5z"/>
</g>
</svg>
